<?xml version="1.0" encoding="UTF-8"?>
<svg xmlns="http://www.w3.org/2000/svg" xmlns:xlink="http://www.w3.org/1999/xlink" width="73pt" height="74pt" viewBox="0 0 73 74" version="1.1">
<g id="surface1">
<path style="fill-rule:nonzero;fill:rgb(0%,0%,0%);fill-opacity:1;stroke-width:0.3985;stroke-linecap:butt;stroke-linejoin:miter;stroke:rgb(0%,0%,0%);stroke-opacity:1;stroke-miterlimit:10;" d="M 7.086668 0.000875 C 7.086668 3.914938 3.914951 7.086813 0.0010846 7.086813 C -3.912782 7.086813 -7.088405 3.914938 -7.088405 0.000875 C -7.088405 -3.913187 -3.912782 -7.085062 0.0010846 -7.085062 C 3.914951 -7.085062 7.086668 -3.913187 7.086668 0.000875 Z M 7.086668 0.000875 " transform="matrix(1.00005,0,0,-1,8.182509,65.579)"/>
<path style="fill-rule:nonzero;fill:rgb(0%,0%,0%);fill-opacity:1;stroke-width:0.3985;stroke-linecap:butt;stroke-linejoin:miter;stroke:rgb(0%,0%,0%);stroke-opacity:1;stroke-miterlimit:10;" d="M 63.779146 0.000875 C 63.779146 3.914938 60.607429 7.086813 56.693562 7.086813 C 52.779696 7.086813 49.607979 3.914938 49.607979 0.000875 C 49.607979 -3.913187 52.779696 -7.085062 56.693562 -7.085062 C 60.607429 -7.085062 63.779146 -3.913187 63.779146 0.000875 Z M 63.779146 0.000875 " transform="matrix(1.00005,0,0,-1,8.182509,65.579)"/>
<path style="fill-rule:nonzero;fill:rgb(0%,0%,0%);fill-opacity:1;stroke-width:0.3985;stroke-linecap:butt;stroke-linejoin:miter;stroke:rgb(0%,0%,0%);stroke-opacity:1;stroke-miterlimit:10;" d="M 7.086668 56.692281 C 7.086668 60.606344 3.914951 63.782125 0.0010846 63.782125 C -3.912782 63.782125 -7.088405 60.606344 -7.088405 56.692281 C -7.088405 52.778219 -3.912782 49.606344 0.0010846 49.606344 C 3.914951 49.606344 7.086668 52.778219 7.086668 56.692281 Z M 7.086668 56.692281 " transform="matrix(1.00005,0,0,-1,8.182509,65.579)"/>
<path style="fill-rule:nonzero;fill:rgb(0%,0%,0%);fill-opacity:1;stroke-width:0.3985;stroke-linecap:butt;stroke-linejoin:miter;stroke:rgb(0%,0%,0%);stroke-opacity:1;stroke-miterlimit:10;" d="M 63.779146 56.692281 C 63.779146 60.606344 60.607429 63.782125 56.693562 63.782125 C 52.779696 63.782125 49.607979 60.606344 49.607979 56.692281 C 49.607979 52.778219 52.779696 49.606344 56.693562 49.606344 C 60.607429 49.606344 63.779146 52.778219 63.779146 56.692281 Z M 63.779146 56.692281 " transform="matrix(1.00005,0,0,-1,8.182509,65.579)"/>
<path style="fill-rule:nonzero;fill:rgb(0%,0%,0%);fill-opacity:1;stroke-width:0.3985;stroke-linecap:butt;stroke-linejoin:miter;stroke:rgb(0%,0%,0%);stroke-opacity:1;stroke-miterlimit:10;" d="M 35.432907 28.348531 C 35.432907 32.262594 32.26119 35.434469 28.347324 35.434469 C 24.433457 35.434469 21.26174 32.262594 21.26174 28.348531 C 21.26174 24.434469 24.433457 21.258688 28.347324 21.258688 C 32.26119 21.258688 35.432907 24.434469 35.432907 28.348531 Z M 35.432907 28.348531 " transform="matrix(1.00005,0,0,-1,8.182509,65.579)"/>
</g>
</svg>
